<?xml version="1.0" encoding="UTF-8" standalone="no"?>
<!-- Created with Inkscape (http://www.inkscape.org/) -->

<svg
   xmlns:dc="http://purl.org/dc/elements/1.1/"
   xmlns:cc="http://creativecommons.org/ns#"
   xmlns:rdf="http://www.w3.org/1999/02/22-rdf-syntax-ns#"
   xmlns:svg="http://www.w3.org/2000/svg"
   xmlns="http://www.w3.org/2000/svg"
   xmlns:xlink="http://www.w3.org/1999/xlink"
   xmlns:sodipodi="http://sodipodi.sourceforge.net/DTD/sodipodi-0.dtd"
   xmlns:inkscape="http://www.inkscape.org/namespaces/inkscape"
   width="70.114586mm"
   height="70.114586mm"
   viewBox="0 0 70.114586 70.114586"
   version="1.1"
   id="svg8"
   sodipodi:docname="gta.svg"
   inkscape:version="0.92.4 (5da689c313, 2019-01-14)">
  <defs
     id="defs2" />
  <g
     inkscape:label="Layer 1"
     inkscape:groupmode="layer"
     id="layer1"
     transform="translate(-80.603424,-88.829613)">
    <path
       style="fill:white"
       d="m 105.01651,147.90319 -0.59004,-0.10691 -0.53444,-0.67943 -0.53444,-0.67943 v -4.30139 -4.30139 l -3.06409,-0.0973 -3.064087,-0.0973 -1.036952,-1.11167 -1.036953,-1.11167 v -4.5645 -4.5645 l 1.455208,-1.3761 1.455209,-1.37611 v -1.18314 -1.18315 l -0.395245,-0.75785 -0.395245,-0.75785 -0.0016,-0.99219 -0.0016,-0.99218 h -3.0334 -3.033399 l -0.286583,-0.53549 -0.286583,-0.53548 0.07884,-6.73661 0.07884,-6.73661 0.996469,-0.99614 0.996469,-0.99613 14.174042,-0.0664 14.17404,-0.0664 0.39227,0.21953 0.39227,0.21952 0.90753,-0.28405 0.90754,-0.28406 v -0.85199 -0.851988 l 0.51177,-0.273893 0.51177,-0.273892 h 2.74495 2.74495 l 0.51359,0.375202 0.51359,0.375203 0.0787,6.900838 0.0787,6.90084 h 1.67487 1.67487 l 0.32937,0.39688 0.32938,0.39687 h 1.56165 1.56165 l 0.25804,0.67868 0.25803,0.67869 v 4.25155 4.25156 l -0.31364,1.04684 -0.31364,1.04684 -0.92156,0.70365 -0.92156,0.70365 -2.85817,0.0893 -2.85817,0.0893 -0.84207,-0.42008 -0.84207,-0.42008 h -0.0916 -0.0916 v 2.61217 2.61217 l 1.37349,0.13198 1.37349,0.13197 0.61089,0.7102 0.61088,0.71019 v 0.35732 0.35733 l 2.6272,0.0909 2.6272,0.0909 0.74624,0.55467 0.74623,0.55467 0.32683,0.63596 0.32683,0.63595 0.004,4.12771 0.004,4.1277 -0.28799,0.82612 -0.28798,0.82611 -0.96879,0.60243 -0.96876,0.60243 -6.35,-0.0109 -6.35,-0.0108 -1.05834,-0.058 -1.05833,-0.058 -8.73125,0.0919 -8.73125,0.0919 -0.59004,-0.10692 z m 11.70254,-1.09148 0.26458,-0.0153 2.38999,0.14493 2.38999,0.14493 0.9173,-0.3771 0.91731,-0.3771 0.8896,0.36888 0.88961,0.36888 2.94685,-0.13337 2.94685,-0.13337 0.66146,0.0307 0.66146,0.0307 2.56093,0.0205 2.56093,0.0205 0.74636,-0.55736 0.74636,-0.55737 0.0722,-4.49903 0.0722,-4.49903 -0.51131,-0.63215 -0.5113,-0.63214 -3.18382,-0.088 -3.18381,-0.088 -0.0813,-0.83205 -0.0813,-0.83205 -0.66146,-0.33286 -0.66146,-0.33286 -1.25677,-0.004 -1.25677,-0.004 v -3.1547 -3.1547 l -0.66146,-0.7861 -0.66145,-0.7861 v -1.48316 -1.48316 h 1.02467 1.02467 l 0.13196,1.37335 0.13196,1.37335 0.83192,0.74332 0.83191,0.74332 h 2.80041 2.80041 l 0.90563,-0.90563 0.90563,-0.90563 -0.0722,-4.84906 -0.0722,-4.84906 -1.78594,-0.0782 -1.78594,-0.0782 v -0.25249 -0.2525 l -5.4901,0.009 -5.49011,0.009 -0.63435,0.35155 -0.63435,0.35156 -0.68856,-0.3593 -0.68857,-0.3593 -2.24896,0.0103 -2.24896,0.0103 -0.79004,0.33686 -0.79004,0.33686 -0.66517,-0.34716 -0.66516,-0.34717 -0.59532,-0.002 -0.59531,-0.002 v -0.2081 -0.20811 l 5.22552,-0.0231 5.22552,-0.0231 3.90261,-0.0334 3.9026,-0.0334 v -7.01146 -7.01146 h -2.76291 -2.76291 l -0.0814,1.12448 -0.0814,1.12448 -0.92498,0.0878 -0.92498,0.0878 -0.31488,0.26132 -0.31488,0.26133 -0.54524,-0.29181 -0.54523,-0.2918 -6.68158,0.11276 -6.68156,0.11275 -0.39688,-1.6e-4 -0.39687,-1.7e-4 -6.82462,-0.11249 -6.824616,-0.11248 -0.782155,0.78215 -0.782155,0.78216 v 6.50264 6.50264 h 3.307292 3.307292 v 1.5875 1.5875 h 0.378719 0.37872 l 0.0843,2.49214 0.0843,2.49214 -1.004841,0.3004 -1.004841,0.3004 -0.515524,0.84548 -0.515525,0.84549 -9.79e-4,3.92906 -9.99e-4,3.92906 0.899584,0.89958 0.899583,0.89959 h 3.069165 3.06917 v 4.46223 4.46224 l 0.54094,0.68769 0.54093,0.68768 5.61063,-0.096 5.61063,-0.096 0.26458,-0.0152 z m -11.24479,-5.72689 v -4.63021 h 1.45521 1.45521 v 0.22783 0.22782 l 1.07774,-0.28766 1.07774,-0.28767 0.7082,0.40229 0.70819,0.40229 0.66146,-0.3516 0.66146,-0.3516 0.8835,0.12864 0.88351,0.12864 0.37326,0.30978 0.37327,0.30979 v 4.20093 4.20094 h -1.45521 -1.45521 v -3.43958 -3.43959 h -0.39687 -0.39688 v 3.43959 3.43958 h -1.45521 -1.4552 v -3.43958 -3.43959 h -0.39688 -0.39687 v 3.43959 3.43958 h -1.45521 -1.45521 z m 11.57552,4.34444 -0.46302,-0.26969 v -4.07859 -4.07858 l 0.51177,-0.27389 0.51177,-0.2739 h 2.37975 2.37974 l 0.41578,0.41578 0.41577,0.41577 v 3.94054 3.94055 l -0.51177,0.27389 -0.51177,0.27389 -2.3325,-0.008 -2.3325,-0.008 -0.46302,-0.26969 z m 3.24115,-4.34444 v -2.24896 h -0.39688 -0.39687 v 2.24896 2.24896 h 0.39687 0.39688 z m 4.12834,4.22285 -0.42418,-0.42419 0.004,-3.75141 0.004,-3.75141 0.2395,-0.37847 0.23951,-0.37847 1.60853,-0.11636 1.60852,-0.11635 v -1.02653 -1.02653 h 1.59276 1.59277 l -0.0714,5.62239 -0.0714,5.6224 -2.94926,0.0746 -2.94925,0.0746 -0.42418,-0.42418 z m 3.27999,-4.22285 v -2.24896 h -0.39688 -0.39687 v 2.24896 2.24896 h 0.39687 0.39688 z m 4.43177,4.34444 -0.46302,-0.26969 v -1.17748 -1.17747 h 1.45521 1.45521 v 0.26458 0.26458 h 0.39687 0.39688 v -0.52916 -0.52917 h -1.53459 -1.53458 l -0.3175,-0.3175 -0.3175,-0.3175 v -2.31903 -2.31902 l 0.51177,-0.27389 0.51178,-0.2739 h 2.28374 2.28375 l 0.51177,0.2739 0.51177,0.27389 v 1.18131 1.18132 h -1.45521 -1.4552 v -0.26458 -0.26459 h -0.39688 -0.39687 v 0.52917 0.52917 h 1.1734 1.1734 l 0.67868,0.25803 0.67868,0.25804 v 2.37849 2.37849 l -0.51177,0.27389 -0.51177,0.27389 -2.3325,-0.008 -2.3325,-0.008 -0.46302,-0.26969 z M 98.264362,135.1105 97.801341,134.84082 v -2.18289 -2.1829 l 0.3175,-0.3175 0.3175,-0.3175 h 1.402292 1.402287 v -0.66146 -0.66146 h -0.39687 -0.39688 v 0.26459 0.26458 h -1.322912 -1.322917 v -1.15852 -1.15853 l 0.786906,-0.32595 0.786907,-0.32594 2.017266,0.10186 2.01727,0.10187 0.37083,0.50713 0.37082,0.50714 v 4.05047 4.05047 l -2.71198,-0.008 -2.711977,-0.008 z m 2.976558,-2.49234 v -0.66146 h -0.39687 -0.39688 v 0.48507 0.48507 l 0.17639,0.17638 0.17639,0.17639 h 0.22049 0.22048 z m 4.13496,2.28643 -0.44497,-0.49169 0.0732,-4.07237 0.0732,-4.07237 1.38907,-0.08 1.38906,-0.08 v 3.5857 3.5857 h 0.39687 0.39688 v -3.57187 -3.57188 h 1.32292 1.32291 v 4.31271 4.31271 l -0.3175,0.3175 -0.3175,0.3175 h -2.41962 -2.41961 z m 7.92249,0.0759 -0.41578,-0.41578 v -2.75922 -2.75923 h -0.39687 -0.39688 v -0.99953 -0.99953 l 0.53219,-0.45568 0.53219,-0.45568 h 1.13469 1.13468 l 0.30254,0.30254 0.30254,0.30255 1.53632,0.0282 1.53631,0.0282 0.0814,1.12448 0.0814,1.12448 h -1.73501 -1.735 v 2.11667 2.11666 h 0.26458 0.26459 v -1.71979 -1.71979 h 1.4552 1.45521 v 2.50423 2.50424 l -0.51177,0.27389 -0.51177,0.27389 h -2.24746 -2.24745 z m 7.45558,0.12999 -0.46302,-0.26968 v -3.9495 -3.94951 l 0.65801,-0.43114 0.65801,-0.43115 2.0796,0.0944 2.07959,0.0944 0.43739,0.363 0.4374,0.36301 v 3.76305 3.76306 l -0.48386,0.43788 -0.48385,0.43788 -2.22813,-0.008 -2.22812,-0.008 -0.46302,-0.26968 z m 2.97656,-4.23418 v -2.4033 l -0.33073,0.10936 -0.33073,0.10935 -0.0786,1.93846 -0.0786,1.93844 0.13641,0.3555 0.13641,0.35548 h 0.27289 0.27289 z m -22.87146,-6.38683 -0.41188,-0.58803 v -2.71926 -2.71925 h -0.39687 -0.396875 v -1.05834 -1.05833 h 0.368565 0.36857 l 0.15229,-0.39687 0.1523,-0.39688 h 1.20723 1.20724 l 0.15229,0.39688 0.1523,0.39687 h 1.69148 1.69148 v 1.05833 1.05834 h -1.73092 -1.73092 l 0.0773,1.98631 0.0773,1.98631 0.26459,0.0642 0.26458,0.0642 0.0788,-1.65365 0.0788,-1.65364 h 1.31029 1.31029 v 2.49464 2.49464 l -0.41577,0.41578 -0.41577,0.41577 h -2.34735 -2.34735 z m 6.99646,-4.30675 v -4.89479 h -1.54649 -1.5465 l -0.43788,-0.48386 -0.43788,-0.48385 v -2.69115 -2.69114 h -0.26459 -0.26458 v 1.71979 1.71979 h -1.45521 -1.45521 v -4.49792 -4.49791 h 2.87802 2.87802 l 0.32076,0.38649 0.32076,0.38649 -0.0521,1.92861 -0.0521,1.92862 0.0283,2.57968 0.0283,2.57969 h 1.85209 1.85208 v 1.15786 1.15786 l 1.43917,0.11935 1.43917,0.11935 0.41291,0.34269 0.41292,0.34268 v 4.33323 4.33323 h -1.45521 -1.45521 v -3.59392 -3.59393 l -0.33073,0.10986 -0.33073,0.10986 -0.0738,3.48407 -0.0738,3.48406 h -1.31524 -1.31523 z m -3.96875,-14.02292 v -0.66146 h -0.26459 -0.26458 v 0.66146 0.66146 h 0.26458 0.26459 z m 11.8401,18.63193 -0.46302,-0.26968 v -4.0818 -4.08179 l 0.65802,-0.43115 0.65801,-0.43114 2.14365,0.0974 2.14366,0.0973 0.37333,0.51057 0.37333,0.51055 v 2.33068 2.33068 h -1.85208 -1.85208 v 0.48507 0.48507 l 0.17696,0.17697 0.17697,0.17696 0.45745,-0.41398 0.45745,-0.41399 1.15152,0.0827 1.15152,0.0827 0.0812,0.97712 0.0812,0.97711 -0.54424,0.54424 -0.54424,0.54424 -2.18281,-0.008 -2.18282,-0.008 -0.46302,-0.26968 z m 2.97657,-6.34442 v -0.51355 h -0.39688 -0.39687 v 0.48507 0.48507 l 0.16919,0.1692 0.1692,0.16919 0.22768,-0.14071 0.22768,-0.14071 z m 3.96875,2.12574 v -4.50447 l 0.70333,-0.26741 0.70334,-0.26741 2.40552,0.0755 2.40551,0.0755 0.0814,1.12448 0.0814,1.12448 h -1.86729 -1.8673 v 0.2525 0.25249 l 1.78594,0.0782 1.78593,0.0782 0.0814,1.12448 0.0814,1.12448 h -1.86729 -1.8673 v 2.11666 2.11667 h -1.32292 -1.32291 z m 7.9375,3.97529 -0.52917,-0.52916 v -2.77813 -2.77812 h -0.26458 -0.26459 v -0.92302 -0.92302 l 0.45568,-0.53219 0.45567,-0.53219 h 1.14013 1.14013 l 0.15229,0.39688 0.1523,0.39687 h 1.69149 1.69148 v 1.05833 1.05834 h -1.73092 -1.73092 l 0.0773,1.98631 0.0773,1.98631 0.26458,0.002 0.26458,0.002 0.1323,-1.65767 0.13229,-1.65767 h 1.2572 1.2572 l -5.3e-4,2.70267 -5.3e-4,2.70267 -0.51177,0.27389 -0.51178,0.27389 h -2.13406 -2.13406 l -0.52917,-0.52916 z M 93.038841,114.2417 v -1.04624 l 1.785938,-0.0782 1.785937,-0.0782 v -0.26458 -0.26459 l -1.447188,-0.082 -1.447187,-0.082 -0.33875,-0.28113 -0.33875,-0.28114 v -3.78516 -3.78517 l 0.415774,-0.41577 0.415774,-0.41577 h 2.759226 2.759226 v 5.63562 5.63563 l -0.3175,0.3175 -0.3175,0.3175 h -2.8575 -2.8575 z m 3.571875,-6.36209 v -2.20486 l -0.330729,-0.11024 -0.330729,-0.11024 v 2.42534 2.42535 l 0.330729,-0.11024 0.330729,-0.11025 z m 4.233334,6.08542 0.16352,-0.26458 h 0.77814 0.77813 v 0.26458 0.26458 h -0.94166 -0.94165 z m 7.32896,-1.905 -0.3175,-0.3175 v -2.14312 -2.14313 l 0.3175,-0.3175 0.3175,-0.3175 h 1.40229 1.40229 v -0.66146 -0.66146 h -0.27288 -0.27289 l -0.1523,0.39688 -0.15229,0.39687 h -1.29461 -1.29461 v -1.1377 -1.13771 l 0.3175,-0.3175 0.3175,-0.3175 h 2.54 2.54 l 0.3175,0.3175 0.3175,0.3175 v 4.18041 4.18042 h -2.8575 -2.8575 z m 3.12208,-2.46062 v -0.66146 h -0.24897 -0.24897 l -0.17135,0.27725 -0.17135,0.27725 0.14743,0.38421 0.14744,0.3842 h 0.27289 0.27288 z m 3.96875,-1.70353 v -4.48164 l 2.787,0.0115 2.787,0.0115 0.388,0.388 0.388,0.388 v 4.08215 4.08214 h -1.45521 -1.4552 v -3.46163 -3.46163 l -0.33073,0.10983 -0.33073,0.10984 -0.074,3.35179 -0.074,3.3518 h -1.31502 -1.31501 z m 7.73906,4.30642 -0.33072,-0.13345 v -4.02608 -4.02607 l 0.3175,-0.3175 0.3175,-0.3175 h 1.40229 1.40229 v -1.19063 -1.19062 h 1.45521 1.45521 v 5.68854 5.68854 l -2.84428,-0.0209 -2.84427,-0.0209 -0.33073,-0.13345 z m 3.10886,-4.34473 v -2.4033 l -0.33073,0.10954 -0.33073,0.10955 -0.0764,2.29375 -0.0764,2.29375 h 0.40717 0.40718 z m 1.76824,16.3766 -0.13897,-0.34726 -0.0209,0.50711 -0.0209,0.50712 0.15986,-0.15985 0.15985,-0.15985 -0.13897,-0.34727 z"
       id="path33"
       inkscape:connector-curvature="0" />
  </g>
</svg>
